<svg width="34" height="33" viewBox="0 0 34 33" fill="none" xmlns="http://www.w3.org/2000/svg">
<path d="M2 2H7.45455L11.1091 20.491C11.2338 21.1267 11.5753 21.6978 12.0739 22.1043C12.5725 22.5108 13.1964 22.7267 13.8364 22.7143H27.0909C27.7309 22.7267 28.3548 22.5108 28.8533 22.1043C29.3519 21.6978 29.6935 21.1267 29.8182 20.491L32 8.90476H8.81818M14.2727 29.619C14.2727 30.3817 13.6622 31 12.9091 31C12.156 31 11.5455 30.3817 11.5455 29.619C11.5455 28.8564 12.156 28.2381 12.9091 28.2381C13.6622 28.2381 14.2727 28.8564 14.2727 29.619ZM29.348 29.619C29.348 30.3817 28.7375 31 27.9844 31C27.2312 31 26.6207 30.3817 26.6207 29.619C26.6207 28.8564 27.2312 28.2381 27.9844 28.2381C28.7375 28.2381 29.348 28.8564 29.348 29.619Z" stroke="#385F59" stroke-width="3" stroke-linecap="round" stroke-linejoin="round"/>
</svg>
