<svg width="34" height="34" viewBox="0 0 34 34" fill="none" xmlns="http://www.w3.org/2000/svg">
<path d="M17 3.06313C21.5392 3.06313 22.0768 3.0804 23.8694 3.16219C25.5269 3.23783 26.427 3.51478 27.0261 3.74752C27.8196 4.05591 28.3859 4.42436 28.9808 5.01921C29.5756 5.61406 29.9441 6.18044 30.2524 6.97389C30.4852 7.57299 30.7622 8.47313 30.8378 10.1305C30.9196 11.9232 30.9369 12.4608 30.9369 17C30.9369 21.5393 30.9196 22.0769 30.8378 23.8695C30.7622 25.5269 30.4852 26.4271 30.2524 27.0262C29.9441 27.8196 29.5756 28.386 28.9808 28.9809C28.3859 29.5757 27.8196 29.9442 27.0261 30.2525C26.427 30.4853 25.5269 30.7622 23.8694 30.8379C22.0771 30.9197 21.5395 30.9369 17 30.9369C12.4605 30.9369 11.9229 30.9197 10.1305 30.8379C8.47306 30.7622 7.57292 30.4853 6.97389 30.2525C6.18037 29.9442 5.614 29.5757 5.01915 28.9809C4.4243 28.386 4.05585 27.8196 3.74752 27.0262C3.51471 26.4271 3.23777 25.5269 3.16212 23.8695C3.08033 22.0769 3.06306 21.5393 3.06306 17C3.06306 12.4608 3.08033 11.9232 3.16212 10.1306C3.23777 8.47313 3.51471 7.57299 3.74752 6.97389C4.05585 6.18044 4.4243 5.61406 5.01915 5.01921C5.614 4.42436 6.18037 4.05591 6.97389 3.74752C7.57292 3.51478 8.47306 3.23783 10.1305 3.16219C11.9231 3.0804 12.4607 3.06313 17 3.06313ZM17 0C12.383 0 11.8042 0.0195697 9.99092 0.102302C8.1814 0.1849 6.94568 0.472236 5.86429 0.892512C4.74639 1.32696 3.79834 1.90824 2.85326 2.85332C1.90818 3.7984 1.32689 4.74645 0.892444 5.86435C0.472169 6.94575 0.184832 8.18147 0.102235 9.99099C0.0195022 11.8042 0 12.3831 0 17C0 21.617 0.0195022 22.1959 0.102235 24.0091C0.184832 25.8186 0.472169 27.0543 0.892444 28.1357C1.32689 29.2535 1.90818 30.2017 2.85326 31.1467C3.79834 32.0918 4.74639 32.6731 5.86429 33.1076C6.94568 33.5278 8.1814 33.8152 9.99092 33.8978C11.8042 33.9805 12.383 34 17 34C21.6169 34 22.1958 33.9805 24.009 33.8978C25.8185 33.8152 27.0543 33.5278 28.1356 33.1076C29.2535 32.6731 30.2016 32.0918 31.1467 31.1467C32.0918 30.2017 32.673 29.2536 33.1075 28.1357C33.5278 27.0543 33.8151 25.8186 33.8977 24.0091C33.9804 22.1959 34 21.617 34 17C34 12.3831 33.9804 11.8042 33.8977 9.99099C33.8151 8.18147 33.5278 6.94575 33.1075 5.86435C32.673 4.74645 32.0918 3.7984 31.1467 2.85332C30.2016 1.90824 29.2535 1.32696 28.1356 0.892512C27.0543 0.472236 25.8185 0.1849 24.009 0.102302C22.1958 0.0195697 21.6169 0 17 0ZM17 8.27028C12.1787 8.27028 8.27021 12.1787 8.27021 17C8.27021 21.8213 12.1787 25.7298 17 25.7298C21.8213 25.7298 25.7297 21.8213 25.7297 17C25.7297 12.1787 21.8213 8.27028 17 8.27028ZM17 22.6667C13.8704 22.6667 11.3333 20.1296 11.3333 17C11.3333 13.8704 13.8704 11.3333 17 11.3333C20.1296 11.3333 22.6667 13.8704 22.6667 17C22.6667 20.1296 20.1296 22.6667 17 22.6667ZM28.1146 7.92538C28.1146 9.05205 27.2013 9.96541 26.0746 9.96541C24.948 9.96541 24.0346 9.05205 24.0346 7.92538C24.0346 6.7987 24.948 5.88541 26.0746 5.88541C27.2013 5.88541 28.1146 6.7987 28.1146 7.92538Z" fill="white"/>
</svg>
