<svg width="14" height="22" viewBox="0 0 14 22" fill="none" xmlns="http://www.w3.org/2000/svg">
<path d="M7.00009 0.53418C3.27009 0.53418 0.246094 3.55818 0.246094 7.28818C0.246094 7.91318 0.331093 8.51918 0.490093 9.09418C0.554093 9.32418 0.629093 9.55018 0.716093 9.76918L0.921093 10.2342L7.00009 21.4662L13.0871 10.2172L13.2721 9.79818C13.3641 9.56918 13.4431 9.33418 13.5101 9.09318C13.6691 8.51818 13.7541 7.91318 13.7541 7.28718C13.7541 3.55818 10.7301 0.53418 7.00009 0.53418ZM7.00009 10.2142C5.35009 10.2142 4.01209 8.87618 4.01209 7.22618C4.01209 5.57618 5.35009 4.23818 7.00009 4.23818C8.65009 4.23818 9.98809 5.57618 9.98809 7.22618C9.98809 8.87718 8.65009 10.2142 7.00009 10.2142Z" fill="#385F59"/>
</svg>
