<svg width="34" height="34" viewBox="0 0 34 34" fill="none" xmlns="http://www.w3.org/2000/svg">
<path d="M17.0012 0C7.61195 0 0 7.61118 0 16.9984C0 23.9612 4.18526 29.9411 10.1765 32.5702C10.1257 31.3821 10.1654 29.9587 10.4697 28.6676C10.7983 27.2866 12.6594 19.4026 12.6594 19.4026C12.6594 19.4026 12.1169 18.3171 12.1169 16.7139C12.1169 14.194 13.5767 12.313 15.3936 12.313C16.9416 12.313 17.6869 13.4751 17.6869 14.8649C17.6869 16.4185 16.6969 18.7449 16.1875 20.8977C15.7619 22.7015 17.0915 24.1729 18.8688 24.1729C22.0905 24.1729 24.2603 20.0343 24.2603 15.1339C24.2603 11.4089 21.7508 8.6199 17.1864 8.6199C12.0287 8.6199 8.81806 12.4651 8.81806 16.7602C8.81806 18.2421 9.25252 19.2857 9.93829 20.0939C10.2515 20.4665 10.2956 20.6165 10.1809 21.0421C10.0993 21.3553 9.91403 22.1083 9.83467 22.4059C9.72206 22.8371 9.37376 22.9904 8.98351 22.8327C6.60872 21.8612 5.5039 19.2625 5.5039 16.338C5.5039 11.5081 9.5767 5.71845 17.6517 5.71845C24.1433 5.71845 28.4168 10.4138 28.4168 15.4558C28.4168 22.1247 24.7079 27.1079 19.2415 27.1079C17.4069 27.1079 15.6803 26.1144 15.0893 24.9876C15.0893 24.9876 14.1015 28.9057 13.8943 29.6609C13.5326 30.9707 12.827 32.2823 12.183 33.3032C13.7112 33.7542 15.3275 34 17.0012 34C26.3903 34 34 26.389 34 16.9983C34 7.61118 26.3903 0 17.0012 0Z" fill="white"/>
</svg>
