<svg width="36" height="34" viewBox="0 0 36 34" fill="none" xmlns="http://www.w3.org/2000/svg">
<path d="M29.975 21.9191C30.5987 20.4044 30.9373 18.7828 30.9373 17.0008C30.9373 15.7178 30.7412 14.4882 30.4026 13.3477C29.2443 13.615 28.0326 13.7576 26.7674 13.7576C24.1763 13.7604 21.6225 13.1402 19.3213 11.9492C17.0202 10.7583 15.039 9.03163 13.5449 6.9147C11.9466 10.7819 8.93155 13.8927 5.11607 15.6109C5.04479 16.0564 5.04479 16.5375 5.04479 17.0008C5.04479 18.7021 5.37989 20.3867 6.03094 21.9585C6.682 23.5303 7.63627 24.9585 8.83926 26.1615C11.2688 28.591 14.564 29.956 17.9999 29.956C19.871 29.956 21.6709 29.5461 23.2925 28.8155C24.3082 30.7579 24.7715 31.7201 24.7359 31.7201C21.8134 32.7002 19.5503 33.1814 17.9999 33.1814C13.6875 33.1814 9.57107 31.4885 6.54167 28.4413C4.69908 26.6043 3.32939 24.348 2.54999 21.8657H0.179932V13.7576H2.12231C2.7108 10.893 4.06379 8.24124 6.0377 6.08356C8.01162 3.92588 10.5328 2.34281 13.3338 1.50233C16.1348 0.661855 19.1111 0.595319 21.9468 1.30979C24.7826 2.02425 27.372 3.49307 29.4404 5.56038C31.6861 7.79724 33.2179 10.6499 33.8419 13.7576H35.8199V21.8657H35.713L29.3691 27.6928L19.9245 26.6236V23.6477H28.5316L29.975 21.9191ZM13.1351 16.591C13.6697 16.591 14.1865 16.8048 14.5607 17.1968C14.9368 17.576 15.1478 18.0884 15.1478 18.6224C15.1478 19.1565 14.9368 19.6689 14.5607 20.048C14.1865 20.4223 13.6697 20.6361 13.1351 20.6361C12.0124 20.6361 11.1036 19.7451 11.1036 18.6224C11.1036 17.4998 12.0124 16.591 13.1351 16.591ZM22.847 16.591C23.9696 16.591 24.8606 17.4998 24.8606 18.6224C24.8606 19.7451 23.9696 20.6361 22.847 20.6361C21.7243 20.6361 20.8155 19.7451 20.8155 18.6224C20.8155 18.0837 21.0295 17.5669 21.4105 17.186C21.7915 16.805 22.3082 16.591 22.847 16.591Z" fill="#FCF7EF"/>
</svg>
